<svg xmlns="http://www.w3.org/2000/svg" viewBox="0 -800 870 1080"><title>zayJu Core 01: M</title><g transform="scale(1,-1)"><path d="M104.0 0.0H132.0C150.0 0.0 161.0 13.0 160.0 34.0C151.0 214.0 149.0 404.0 157.0 574.0C157.0 595.0 161.0 600.0 169.0 580.0L350.0 153.0C374.0 100.0 395.0 78.0 426.0 78.0C458.0 78.0 480.0 100.0 500.0 153.0L670.0 582.0C678.0 604.0 682.0 594.0 683.0 570.0C695.0 407.0 696.0 214.0 685.0 35.0C684.0 13.0 696.0 0.0 716.0 0.0H760.0C785.0 0.0 800.0 18.0 801.0 56.0C809.0 231.0 805.0 442.0 785.0 618.0C777.0 684.0 746.0 724.0 688.0 724.0C646.0 724.0 616.0 687.0 592.0 622.0L459.0 279.0C450.0 255.0 442.0 244.0 432.0 244.0C422.0 244.0 413.0 254.0 403.0 274.0L217.0 636.0C191.0 695.0 166.0 724.0 124.0 724.0C87.0 724.0 66.0 699.0 64.0 657.0C55.0 456.0 54.0 246.0 58.0 48.0C59.0 18.0 76.0 0.0 104.0 0.0Z" fill="black"/></g></svg>
